<?xml version="1.0" standalone="no"?>
<!DOCTYPE svg PUBLIC "-//W3C//DTD SVG 20010904//EN"
 "http://www.w3.org/TR/2001/REC-SVG-20010904/DTD/svg10.dtd">
<svg version="1.0" xmlns="http://www.w3.org/2000/svg"
 width="746.000000pt" height="746.000000pt" viewBox="0 0 746.000000 746.000000"
 preserveAspectRatio="xMidYMid meet">
<metadata>
Created by potrace 1.11, written by Peter Selinger 2001-2013
</metadata>
<g transform="translate(0.000000,746.000000) scale(0.100000,-0.100000)"
fill="#000000" stroke="none">
<path d="M3429 7441 c-56 -31 -122 -100 -225 -239 -52 -70 -102 -135 -110
-145 -8 -9 -14 -21 -14 -25 -1 -17 -133 -117 -169 -128 -21 -6 -96 -12 -167
-12 -248 -2 -302 -22 -453 -164 -112 -106 -164 -196 -196 -338 -1 -3 -5 -21
-9 -40 -14 -57 -14 -207 0 -266 27 -116 90 -220 261 -431 89 -109 232 -257
292 -303 19 -14 48 -37 66 -52 18 -16 37 -28 43 -28 6 0 12 -3 14 -8 6 -13
103 -80 155 -106 63 -32 176 -38 187 -10 6 17 -17 64 -32 64 -4 0 -20 11 -37
25 -34 28 -37 30 -88 68 -67 50 -86 72 -232 268 -177 238 -222 323 -244 464
-5 33 -10 67 -10 75 0 8 -2 31 -4 50 -4 40 7 86 34 150 19 44 47 69 125 112
33 18 179 49 198 42 6 -2 31 -6 56 -9 25 -2 77 -7 115 -11 105 -11 197 -7 239
10 50 21 63 55 60 163 -2 104 13 141 78 198 74 64 140 90 233 89 158 -1 277
-50 378 -158 31 -33 87 -122 92 -146 23 -107 29 -193 28 -415 -1 -234 -6 -302
-27 -390 -11 -42 -16 -95 -19 -188 -3 -85 -1 -112 10 -123 13 -12 18 -11 44 7
39 27 69 78 97 159 21 64 57 211 68 278 3 19 8 44 10 56 2 11 7 37 10 56 3 19
7 40 9 47 23 69 23 439 0 611 -38 281 -52 335 -108 405 -34 43 -183 193 -220
220 -25 20 -161 84 -182 87 -3 0 -10 2 -17 5 -73 24 -119 32 -223 40 -67 4
-86 2 -116 -14z"/>
<path d="M5596 6263 c-2 -3 -33 -6 -68 -8 -34 -2 -81 -6 -104 -9 -23 -4 -59
-8 -81 -11 -138 -14 -264 -65 -421 -171 -52 -35 -99 -64 -103 -64 -5 0 -9 -3
-9 -7 0 -5 -21 -21 -48 -36 -47 -28 -60 -37 -161 -111 -92 -68 -221 -189 -300
-281 -112 -133 -211 -326 -224 -440 -5 -38 11 -107 25 -117 30 -18 66 23 128
144 67 133 84 159 152 228 143 145 472 382 677 486 46 24 86 43 90 42 3 -1 17
3 31 9 67 28 104 26 206 -12 55 -20 118 -48 140 -61 92 -52 150 -132 182 -249
21 -78 21 -80 -33 -260 -21 -74 -24 -109 -13 -157 15 -61 37 -87 112 -138 36
-25 69 -53 72 -62 3 -10 10 -18 15 -18 5 0 9 -8 9 -18 0 -10 4 -22 9 -27 30
-32 48 -266 27 -353 -8 -37 -28 -96 -37 -112 -4 -8 -17 -34 -29 -56 -43 -85
-156 -169 -256 -189 -133 -27 -276 -23 -409 10 -33 9 -71 18 -84 21 -24 5 -98
33 -151 57 -14 7 -47 26 -75 43 -101 62 -358 155 -435 156 -69 1 -76 -16 -27
-65 54 -53 349 -250 470 -312 20 -11 37 -23 37 -28 0 -4 4 -6 9 -2 5 3 12 1
16 -5 11 -17 167 -89 229 -105 106 -27 313 -36 454 -20 67 7 212 44 230 58 6
5 12 7 12 3 0 -10 109 52 165 94 85 64 166 152 218 239 27 45 28 49 22 141 -4
52 -9 147 -10 210 -4 124 -7 144 -30 234 -39 149 -129 246 -287 310 -47 19
-43 35 20 92 58 52 61 72 58 394 -1 218 -4 249 -20 280 -31 58 -180 199 -239
225 -46 21 -150 39 -161 28z"/>
<path d="M1640 5317 c-69 -26 -166 -72 -194 -92 -92 -64 -180 -188 -221 -309
-22 -67 -25 -87 -20 -164 3 -48 8 -131 10 -185 6 -120 13 -150 75 -297 84
-199 115 -363 91 -484 -10 -49 -15 -86 -26 -186 -6 -49 -6 -216 -1 -240 21
-103 97 -233 186 -320 58 -58 142 -111 215 -135 52 -18 175 -26 218 -15 17 5
50 11 72 14 41 5 74 11 103 20 9 3 33 7 52 10 19 3 44 8 55 11 11 2 51 12 89
20 169 38 310 100 452 201 60 43 154 137 154 156 0 12 63 38 94 38 43 0 42
-35 -4 -133 -80 -174 -138 -355 -185 -582 -18 -86 -19 -89 -34 -180 -10 -55
-15 -86 -26 -155 -2 -14 -7 -47 -10 -75 -3 -27 -8 -68 -11 -90 -7 -47 -11 -84
-19 -180 -3 -38 -7 -83 -10 -100 -21 -150 -21 -500 1 -607 2 -13 7 -36 9 -53
3 -16 26 -88 51 -160 66 -187 88 -273 118 -465 26 -159 28 -186 29 -392 l2
-188 81 0 c115 0 119 4 120 132 1 100 10 233 18 273 4 21 16 106 22 159 5 40
13 95 19 123 3 13 8 49 11 80 3 32 9 69 13 83 4 14 8 104 9 200 2 160 0 178
-18 208 -18 28 -25 33 -53 30 -35 -3 -51 17 -61 77 -26 152 -40 247 -51 345
-4 36 -8 76 -10 90 -2 14 -7 54 -10 90 -3 36 -8 81 -10 100 -6 56 -19 232 -19
270 0 38 13 247 19 295 2 17 6 59 10 95 4 36 9 68 11 71 1 3 6 28 10 55 14
105 59 212 157 376 105 174 147 274 147 349 0 65 15 89 54 89 18 0 39 -7 46
-16 15 -17 18 -109 6 -204 -4 -36 -10 -80 -12 -99 -2 -19 -5 -48 -8 -65 -5
-29 -8 -54 -21 -166 -7 -54 -7 -229 -1 -239 3 -4 7 -27 10 -52 5 -41 8 -54 21
-119 2 -14 7 -39 10 -56 8 -50 54 -201 78 -260 39 -92 77 -137 143 -168 32
-16 70 -30 84 -33 14 -2 39 -7 55 -12 50 -13 176 -5 235 14 59 19 85 34 222
126 49 33 92 59 98 59 5 0 10 4 10 9 0 10 70 41 110 49 31 7 167 6 280 0 72
-5 97 -2 155 18 168 57 331 173 393 279 57 99 66 128 68 215 3 103 -15 161
-106 345 -52 106 -227 372 -282 429 -7 7 -26 30 -43 51 -99 126 -276 307 -349
358 -58 39 -107 50 -128 29 -13 -13 -2 -32 71 -122 34 -41 79 -110 102 -153
22 -42 66 -117 98 -165 203 -307 253 -439 255 -677 1 -163 -6 -185 -74 -227
-81 -49 -200 -57 -313 -20 -90 30 -180 36 -222 15 -36 -18 -124 -83 -164 -121
-15 -15 -41 -36 -56 -47 -15 -11 -42 -30 -59 -43 -43 -32 -155 -64 -204 -59
-97 9 -222 124 -258 236 -20 62 -27 223 -12 299 4 25 10 97 13 160 11 239 21
351 36 391 6 14 10 27 9 29 -1 1 1 15 4 30 42 204 18 276 -97 288 -110 11
-121 15 -171 53 -50 37 -89 52 -151 56 -52 4 -81 -13 -101 -58 -30 -68 -50
-94 -198 -266 -215 -248 -298 -319 -481 -408 -217 -105 -342 -113 -511 -32
-113 54 -179 133 -203 244 -15 72 -4 233 25 360 18 82 20 93 29 160 4 28 8 59
9 70 5 38 -15 73 -65 111 -143 111 -182 182 -173 324 2 38 10 86 17 108 20 58
82 145 140 197 29 26 63 57 77 69 84 76 232 110 485 110 194 0 402 -46 570
-124 75 -35 102 -43 115 -35 16 10 -13 55 -72 111 -87 84 -126 107 -368 216
-137 62 -429 132 -635 153 -139 14 -291 15 -325 2z"/>
</g>
</svg>
